<svg width="42" height="42" viewBox="0 0 42 42" fill="none" xmlns="http://www.w3.org/2000/svg">
<path d="M1.93347 32.5787H14.6445V40.0665H1.93347V32.5787Z" fill="#FF6153"/>
<path d="M14.6445 32.5787H27.3555V40.0665H14.6445V32.5787Z" fill="#FF6153"/>
<path d="M1.93347 17.6031H14.6445V25.0909H1.93347V17.6031Z" fill="#FF6153"/>
<path d="M14.6445 17.6031H27.3555V25.0909H14.6445V17.6031Z" fill="#FF6153"/>
<path d="M27.3556 32.5787H40.0666V40.0665H27.3556V32.5787Z" fill="#FF6153"/>
<path d="M1.93347 25.0909H8.28901V32.5787H1.93347V25.0909Z" fill="#C51607"/>
<path d="M8.28906 25.0909H21.0001V32.5787H8.28906V25.0909Z" fill="#FF6153"/>
<path d="M1.93347 10.1153H8.28901V17.6031H1.93347V10.1153Z" fill="#FF6153"/>
<path d="M8.28906 10.1153H21.0001V17.6031H8.28906V10.1153Z" fill="#FF6153"/>
<path d="M27.3556 1.93348H40.0666V9.42129H27.3556V1.93348Z" fill="#C51607"/>
<path d="M21 25.0909H33.711V32.5787H21V25.0909Z" fill="#FF7B69"/>
<path d="M33.7109 25.0909H40.0665V32.5787H33.7109V25.0909Z" fill="#FF7B69"/>
<path d="M39.777 22.4744C39.541 22.3035 39.2672 22.192 38.9789 22.1495C38.6906 22.1071 38.3963 22.1348 38.121 22.2305C38.0083 22.2689 37.8945 22.311 37.7827 22.3556C37.5204 22.4566 37.2408 22.5048 36.9598 22.4974C36.6789 22.49 36.4022 22.4271 36.1456 22.3125C35.4398 22.0137 34.6776 21.8714 33.9116 21.8954C33.196 21.89 32.4874 22.0371 31.8331 22.3269C31.3215 22.5637 30.7374 22.5901 30.2065 22.4003C29.9425 22.3047 29.6738 22.2224 29.4015 22.1537C29.2793 22.1245 29.1506 22.1447 29.0432 22.2097C28.9359 22.2748 28.8584 22.3795 28.8277 22.5013C28.7969 22.623 28.8154 22.752 28.8791 22.8602C28.9427 22.9685 29.0464 23.0473 29.1678 23.0796C29.409 23.1403 29.6469 23.2132 29.8808 23.2979C30.6457 23.573 31.488 23.5368 32.2265 23.197C32.7616 22.9614 33.3409 22.8432 33.9255 22.8502C33.9355 22.8502 33.9469 22.8502 33.9569 22.8492C34.5756 22.8328 35.1907 22.9479 35.7616 23.1869C36.1342 23.3522 36.5359 23.4422 36.9434 23.4518C37.3509 23.4613 37.7563 23.3903 38.1363 23.2426C38.2331 23.204 38.3316 23.1676 38.429 23.1344C38.5612 23.0897 38.7021 23.0771 38.8401 23.0977C38.9781 23.1183 39.1092 23.1714 39.2226 23.2528C39.3359 23.3341 39.4283 23.4413 39.4919 23.5655C39.5556 23.6896 39.5888 23.8271 39.5888 23.9667V24.8518C39.3114 24.6957 38.9985 24.6138 38.6803 24.6139H27.8332V16.5686C27.834 16.3046 27.7737 16.0439 27.6568 15.8071C27.54 15.5704 27.3699 15.3639 27.1598 15.2039C26.9541 15.0443 26.7142 14.9346 26.4589 14.8834C26.2037 14.8322 25.94 14.8408 25.6887 14.9086C25.4548 14.9712 25.2258 15.0506 25.0034 15.1461C24.5499 15.344 24.0368 15.356 23.5746 15.1793C23.3224 15.0798 23.0639 14.997 22.8008 14.9315C22.6783 14.9018 22.5489 14.9218 22.4411 14.9871C22.3332 15.0524 22.2556 15.1578 22.2251 15.2801C22.1946 15.4025 22.2138 15.532 22.2785 15.6402C22.3431 15.7485 22.448 15.8268 22.5702 15.858C22.7923 15.9133 23.0106 15.9832 23.2235 16.0673C23.9206 16.336 24.6954 16.3202 25.381 16.0233C25.5611 15.946 25.7465 15.8817 25.9359 15.831C26.0457 15.8016 26.1609 15.7981 26.2724 15.8207C26.3838 15.8434 26.4885 15.8915 26.5781 15.9615C26.6716 16.0326 26.7474 16.1244 26.7995 16.2297C26.8515 16.3351 26.8784 16.451 26.8781 16.5685V17.3636C26.6008 17.2075 26.2878 17.1256 25.9695 17.1257H21.4774V11.5013C21.4769 11.0072 21.2804 10.5336 20.9311 10.1843C20.5817 9.83492 20.1081 9.63841 19.6141 9.63785H1.93348C1.80686 9.63785 1.68542 9.68815 1.59589 9.77768C1.50635 9.86722 1.45605 9.98865 1.45605 10.1153V40.0665C1.45605 40.1931 1.50635 40.3146 1.59589 40.4041C1.68542 40.4936 1.80686 40.5439 1.93348 40.5439H40.0665C40.1931 40.5439 40.3146 40.4936 40.4041 40.4041C40.4936 40.3146 40.5439 40.1931 40.5439 40.0665V23.9663C40.5456 23.6743 40.4768 23.3861 40.3432 23.1264C40.2097 22.8667 40.0154 22.643 39.777 22.4744ZM8.76643 10.5927H19.6141C19.855 10.593 20.0859 10.6888 20.2562 10.8591C20.4265 11.0295 20.5223 11.2604 20.5226 11.5013V17.1257H8.76643V10.5927ZM20.5226 25.5683V32.1012H8.76643V25.5683H20.5226ZM2.4109 10.5927H7.81159V17.1257H2.4109V10.5927ZM2.4109 18.0806H14.1668V24.6135H2.4109V18.0806ZM26.8781 39.5892H15.122V34.9911C15.1203 34.8655 15.0693 34.7457 14.9799 34.6575C14.8906 34.5693 14.7701 34.5198 14.6445 34.5198C14.5189 34.5198 14.3984 34.5693 14.3091 34.6575C14.2197 34.7457 14.1687 34.8655 14.167 34.9911V39.5891H2.4109V33.0561H5.98008C6.10563 33.0545 6.22547 33.0035 6.31367 32.9141C6.40187 32.8247 6.45132 32.7042 6.45132 32.5787C6.45132 32.4531 6.40187 32.3326 6.31367 32.2432C6.22547 32.1539 6.10563 32.1028 5.98008 32.1012H2.4109V25.5683H7.81159V32.5787C7.81159 32.7053 7.86189 32.8268 7.95142 32.9163C8.04096 33.0058 8.16239 33.0561 8.28901 33.0561H26.8781V39.5892ZM21.4774 32.1012V25.0909C21.4774 24.9643 21.4271 24.8428 21.3376 24.7533C21.2481 24.6638 21.1266 24.6135 21 24.6135H15.122V18.0806H25.9695C26.2104 18.0808 26.4413 18.1766 26.6117 18.347C26.782 18.5173 26.8778 18.7482 26.8781 18.9891V24.6135H23.3707C23.2441 24.6135 23.1227 24.6638 23.0331 24.7533C22.9436 24.8428 22.8933 24.9643 22.8933 25.0909C22.8933 25.2175 22.9436 25.3389 23.0331 25.4285C23.1227 25.518 23.2441 25.5683 23.3707 25.5683H33.2336V32.1012H21.4774ZM39.5891 39.5891H27.8332V33.0561H39.5891V39.5891ZM39.5891 26.7501V32.1012H34.1885V25.5683H38.6806C38.9215 25.5686 39.1524 25.6644 39.3227 25.8348C39.493 26.0051 39.5888 26.236 39.5891 26.4769V26.7501Z" fill="#333333"/>
<path d="M18.338 12.6564C18.364 12.6735 18.3914 12.6882 18.42 12.7006C18.449 12.7123 18.4789 12.7215 18.5095 12.7281C18.5711 12.7391 18.6341 12.7391 18.6957 12.7281C18.7263 12.7215 18.7562 12.7123 18.7852 12.7006C18.8138 12.6883 18.8412 12.6735 18.8672 12.6564C18.8936 12.6392 18.918 12.6192 18.9401 12.5967C19.0289 12.5073 19.079 12.3865 19.0795 12.2604C19.08 12.2287 19.0767 12.1971 19.0699 12.1661C19.0637 12.1358 19.0545 12.1063 19.0424 12.0778C19.0313 12.0484 19.0169 12.0204 18.9995 11.9942C18.9816 11.9688 18.9616 11.9448 18.9398 11.9226C18.9178 11.9001 18.8934 11.8801 18.867 11.863C18.841 11.8459 18.8135 11.8311 18.7849 11.8187C18.7561 11.8065 18.7261 11.7973 18.6954 11.7913C18.634 11.7794 18.5707 11.7794 18.5092 11.7913C18.4785 11.7973 18.4485 11.8065 18.4197 11.8187C18.3912 11.8311 18.3637 11.8459 18.3377 11.863C18.3113 11.8801 18.2869 11.9001 18.2649 11.9226C18.2431 11.9445 18.2235 11.9685 18.2064 11.9942C18.1886 12.0203 18.1738 12.0484 18.1622 12.0778C18.1502 12.1063 18.141 12.1359 18.1348 12.1661C18.1286 12.1972 18.1254 12.2287 18.1252 12.2604C18.1257 12.3865 18.1758 12.5073 18.2647 12.5967C18.2872 12.6189 18.3117 12.6389 18.338 12.6564Z" fill="#333333"/>
<path d="M18.338 14.6223C18.364 14.6393 18.3915 14.6541 18.42 14.6664C18.4489 14.6783 18.4788 14.6871 18.5095 14.6927C18.5709 14.7055 18.6343 14.7055 18.6957 14.6927C18.7264 14.6871 18.7564 14.6783 18.7852 14.6664C18.8138 14.6541 18.8412 14.6394 18.8672 14.6223C18.8933 14.6047 18.9177 14.5847 18.9401 14.5626C19.0288 14.4725 19.0789 14.3513 19.0795 14.2248C19.0799 14.1935 19.0767 14.1623 19.0699 14.1317C19.0637 14.101 19.0545 14.071 19.0425 14.0422C19.031 14.0134 19.0166 13.986 18.9996 13.9602C18.9816 13.9343 18.9616 13.91 18.9398 13.8873C18.9177 13.8652 18.8933 13.8456 18.867 13.8288C18.8149 13.794 18.7565 13.7697 18.6951 13.7573C18.6336 13.7453 18.5704 13.7453 18.5089 13.7573C18.4475 13.7697 18.3891 13.794 18.3371 13.8288C18.2843 13.8625 18.2395 13.9073 18.2058 13.9601C18.1883 13.9858 18.1736 14.0133 18.1617 14.0421C18.1252 14.1292 18.1155 14.2253 18.1337 14.3179C18.152 14.4106 18.1975 14.4958 18.2643 14.5625C18.2872 14.5844 18.3119 14.6044 18.338 14.6223Z" fill="#333333"/>
<path d="M4.72968 20.8123C4.71832 20.7833 4.7035 20.7558 4.68555 20.7303C4.66872 20.704 4.64911 20.6796 4.62706 20.6574C4.6047 20.6353 4.58032 20.6154 4.55422 20.5978C4.52818 20.5808 4.50073 20.566 4.47219 20.5537C4.38498 20.5171 4.28884 20.5075 4.19612 20.526C4.10339 20.5445 4.01831 20.5902 3.95178 20.6574C3.9297 20.6798 3.90973 20.7042 3.89214 20.7303C3.87463 20.756 3.85981 20.7835 3.84793 20.8123C3.83688 20.841 3.8281 20.8706 3.82168 20.9007C3.81498 20.9316 3.81179 20.9632 3.81216 20.9949C3.81222 21.0575 3.82461 21.1195 3.84864 21.1774C3.87266 21.2352 3.90785 21.2877 3.95219 21.332C3.99652 21.3762 4.04914 21.4113 4.10703 21.4352C4.16493 21.459 4.22696 21.4713 4.28958 21.4712C4.32081 21.4714 4.35199 21.4687 4.38269 21.463C4.41334 21.4568 4.44332 21.4475 4.47219 21.4355C4.501 21.4237 4.52849 21.4089 4.55422 21.3914C4.58062 21.3742 4.60505 21.3542 4.62706 21.3317C4.71588 21.2423 4.76597 21.1215 4.76651 20.9954C4.76629 20.9638 4.76307 20.9322 4.75692 20.9012C4.75079 20.8707 4.74167 20.841 4.72968 20.8123Z" fill="#333333"/>
<path d="M4.28928 22.4821C4.19486 22.4822 4.10258 22.5103 4.02409 22.5627C3.9456 22.6152 3.88442 22.6898 3.84828 22.777C3.81214 22.8642 3.80265 22.9602 3.82102 23.0528C3.83938 23.1454 3.88478 23.2305 3.95148 23.2974C4.04113 23.3868 4.16262 23.4371 4.28928 23.4371C4.41594 23.4371 4.53743 23.3868 4.62709 23.2974C4.6939 23.2306 4.73941 23.1455 4.75784 23.0528C4.77628 22.9602 4.76681 22.8641 4.73065 22.7769C4.69448 22.6896 4.63324 22.615 4.55468 22.5625C4.47611 22.5101 4.38375 22.4821 4.28928 22.4821Z" fill="#333333"/>
<path d="M19.0255 29.4863C18.9994 29.4685 18.9714 29.4537 18.942 29.4421C18.9135 29.4301 18.8839 29.4209 18.8537 29.4146C18.7918 29.4027 18.7281 29.4027 18.6662 29.4146C18.636 29.4209 18.6064 29.4301 18.578 29.4421C18.5485 29.4537 18.5205 29.4685 18.4944 29.4863C18.4687 29.5034 18.4447 29.523 18.4228 29.5448C18.4006 29.5671 18.3806 29.5914 18.363 29.6176C18.346 29.6436 18.3313 29.671 18.319 29.6996C18.3073 29.7286 18.2981 29.7585 18.2914 29.7891C18.2858 29.8198 18.283 29.851 18.2832 29.8822C18.283 29.9134 18.2857 29.9446 18.2914 29.9753C18.2981 30.0059 18.3073 30.0358 18.319 30.0649C18.331 30.0935 18.3458 30.121 18.363 30.1469C18.3803 30.1732 18.4003 30.1976 18.4228 30.2197C18.5123 30.3091 18.6338 30.3593 18.7604 30.3592C18.8869 30.3591 19.0083 30.3087 19.0977 30.2191C19.1871 30.1295 19.2373 30.0081 19.2372 29.8815C19.2371 29.7549 19.1867 29.6336 19.0971 29.5441C19.0752 29.5226 19.0512 29.5032 19.0255 29.4863Z" fill="#333333"/>
<path d="M18.4956 28.3142C18.5211 28.3321 18.5486 28.3469 18.5776 28.3583C18.6061 28.3703 18.6356 28.3795 18.6659 28.3858C18.697 28.3915 18.7286 28.3942 18.7602 28.394C18.7915 28.3942 18.8226 28.3915 18.8533 28.3858C18.8839 28.3794 18.9139 28.3702 18.9428 28.3583C18.9716 28.3464 18.9991 28.3316 19.0249 28.3142C19.0506 28.2966 19.0745 28.2766 19.0965 28.2545C19.119 28.2329 19.139 28.2089 19.1561 28.1828C19.1736 28.1571 19.1884 28.1296 19.2003 28.1008C19.2122 28.0719 19.2214 28.0419 19.2278 28.0113C19.2335 27.9806 19.2363 27.9494 19.236 27.9182C19.2363 27.8866 19.2335 27.855 19.2278 27.8239C19.2216 27.7936 19.2124 27.764 19.2003 27.7356C19.1761 27.6776 19.1408 27.6249 19.0965 27.5804C19.0407 27.5251 18.9724 27.4842 18.8973 27.4614C18.8222 27.4385 18.7427 27.4343 18.6656 27.4491C18.6353 27.4553 18.6057 27.4645 18.5773 27.4766C18.5193 27.5007 18.4665 27.536 18.4221 27.5804C18.3996 27.6025 18.3796 27.6269 18.3624 27.6532C18.3449 27.679 18.3301 27.7064 18.3183 27.7353C18.3063 27.7637 18.297 27.7933 18.2908 27.8235C18.2847 27.8546 18.2815 27.8862 18.2812 27.9179C18.2818 28.0442 18.3324 28.1652 18.4221 28.2542C18.4444 28.2767 18.469 28.2968 18.4956 28.3142Z" fill="#333333"/>
<path d="M38.1774 27.2816C38.1513 27.265 38.1239 27.2507 38.0954 27.2387C38.0665 27.2267 38.0365 27.2175 38.0059 27.2112C37.9445 27.1981 37.881 27.1981 37.8196 27.2112C37.7889 27.2173 37.7589 27.2265 37.7301 27.2387C37.7014 27.2504 37.674 27.2648 37.648 27.2816C37.622 27.2993 37.5977 27.3193 37.5753 27.3413C37.4859 27.431 37.4357 27.5525 37.4357 27.6791C37.4357 27.8058 37.4859 27.9273 37.5753 28.017C37.5977 28.039 37.622 28.059 37.648 28.0766C37.674 28.0935 37.7014 28.1079 37.7301 28.1196C37.7589 28.1317 37.7889 28.1409 37.8196 28.147C37.8503 28.1532 37.8815 28.1564 37.9128 28.1566C37.9754 28.1562 38.0375 28.1437 38.0954 28.1196C38.1239 28.1076 38.1513 28.0933 38.1774 28.0766C38.2032 28.0587 38.2276 28.0387 38.2502 28.017C38.3396 27.9273 38.3898 27.8058 38.3898 27.6791C38.3898 27.5525 38.3396 27.431 38.2502 27.3413C38.2276 27.3195 38.2032 27.2996 38.1774 27.2816Z" fill="#333333"/>
<path d="M30.1177 37.677C30.092 37.6592 30.0645 37.6444 30.0356 37.6328C30.0068 37.6206 29.9768 37.6114 29.9461 37.6053C29.8769 37.5914 29.8055 37.593 29.737 37.6101C29.6685 37.6271 29.6046 37.6592 29.55 37.7039C29.4955 37.7486 29.4515 37.805 29.4213 37.8688C29.3911 37.9326 29.3755 38.0023 29.3756 38.0729C29.3758 38.1042 29.379 38.1354 29.3851 38.166C29.3976 38.2274 29.4219 38.2858 29.4567 38.3379C29.4739 38.364 29.4935 38.3883 29.5152 38.4107C29.6053 38.4995 29.7266 38.5495 29.853 38.5502C29.8843 38.55 29.9155 38.5468 29.9461 38.5406C29.9768 38.5345 30.0068 38.5254 30.0356 38.5132C30.0643 38.5015 30.0917 38.4871 30.1177 38.4702C30.1702 38.4352 30.2153 38.3902 30.2502 38.3377C30.2672 38.3117 30.2819 38.2842 30.2943 38.2557C30.3061 38.2268 30.3149 38.1968 30.3206 38.1662C30.3273 38.1356 30.3305 38.1044 30.3301 38.0731C30.33 37.9465 30.2799 37.8251 30.1907 37.7353C30.1685 37.7133 30.144 37.6937 30.1177 37.677Z" fill="#333333"/>
<path d="M16.5571 28.3142C16.5828 28.3316 16.6103 28.3464 16.6391 28.3583C16.668 28.3703 16.698 28.3795 16.7287 28.3858C16.7594 28.3915 16.7906 28.3942 16.8218 28.394C16.853 28.3943 16.8842 28.3915 16.9149 28.3858C16.9456 28.3797 16.9756 28.3705 17.0044 28.3583C17.0333 28.3467 17.0608 28.3319 17.0864 28.3142C17.1127 28.2969 17.1371 28.2769 17.1592 28.2545C17.2484 28.1653 17.2986 28.0444 17.2986 27.9182C17.299 27.8865 17.2958 27.8548 17.2891 27.8239C17.2833 27.7936 17.2745 27.7641 17.2628 27.7356C17.251 27.7068 17.2362 27.6793 17.2187 27.6536C17.201 27.6275 17.181 27.6031 17.1589 27.5807C17.0924 27.5135 17.0073 27.4678 16.9146 27.4493C16.8219 27.4308 16.7257 27.4404 16.6385 27.4769C16.61 27.4893 16.5825 27.504 16.5565 27.521C16.5304 27.5386 16.5061 27.5586 16.4837 27.5807C16.4617 27.6028 16.4421 27.6272 16.4252 27.6536C16.4073 27.679 16.3924 27.7066 16.381 27.7356C16.3691 27.764 16.3599 27.7936 16.3536 27.8239C16.3475 27.8549 16.3443 27.8865 16.3441 27.9182C16.3447 28.0443 16.3948 28.165 16.4836 28.2545C16.5061 28.2767 16.5307 28.2966 16.5571 28.3142Z" fill="#333333"/>
<path d="M4.37162 35.9711C4.36 35.9422 4.34519 35.9147 4.32749 35.8891C4.31066 35.8628 4.29102 35.8383 4.26892 35.8162C4.21312 35.7611 4.14471 35.7205 4.06963 35.6978C3.99455 35.6751 3.91507 35.6711 3.83809 35.6861C3.80744 35.6918 3.77745 35.7007 3.74859 35.7125C3.71991 35.7245 3.69244 35.7393 3.66656 35.7566C3.61404 35.7915 3.569 35.8366 3.53408 35.8891C3.51719 35.915 3.50277 35.9425 3.49102 35.9711C3.47886 36 3.46968 36.03 3.46362 36.0607C3.44797 36.1377 3.45166 36.2173 3.47437 36.2925C3.49708 36.3677 3.53808 36.4361 3.59372 36.4915C3.61582 36.5136 3.64024 36.5332 3.66656 36.55C3.69216 36.5678 3.71968 36.5826 3.74859 36.5941C3.77741 36.6063 3.8074 36.6156 3.83809 36.6216C3.90729 36.6355 3.97872 36.6339 4.04721 36.6169C4.11571 36.5998 4.17956 36.5678 4.23415 36.523C4.28875 36.4783 4.33272 36.422 4.36289 36.3582C4.39306 36.2943 4.40868 36.2246 4.40862 36.154C4.40844 36.1228 4.40525 36.0916 4.3991 36.061C4.39307 36.0302 4.38386 36.0001 4.37162 35.9711Z" fill="#333333"/>
<path d="M4.19614 37.7222C4.17011 37.7051 4.14267 37.6903 4.11411 37.6779C4.02688 37.6415 3.93076 37.6319 3.83805 37.6504C3.74534 37.6689 3.66026 37.7147 3.59371 37.7818C3.50458 37.8716 3.45447 37.993 3.45425 38.1196C3.45388 38.1509 3.45707 38.1821 3.46377 38.2127C3.46962 38.2429 3.47841 38.2725 3.49002 38.301C3.50212 38.3302 3.51692 38.3582 3.53423 38.3846C3.5521 38.41 3.57205 38.434 3.59387 38.4562C3.63821 38.5005 3.69087 38.5357 3.74885 38.5596C3.80682 38.5836 3.86896 38.5958 3.93167 38.5956C3.9629 38.5959 3.99408 38.5931 4.02478 38.5874C4.0553 38.5807 4.08522 38.5715 4.11428 38.5599C4.14285 38.5476 4.17029 38.5329 4.19631 38.5158C4.22242 38.4983 4.24678 38.4783 4.26907 38.4561C4.2909 38.4342 4.31052 38.4102 4.32764 38.3845C4.34539 38.3584 4.36019 38.3303 4.37177 38.301C4.38381 38.2725 4.39302 38.2429 4.39925 38.2126C4.40534 38.1819 4.40853 38.1508 4.40877 38.1195C4.40858 37.9929 4.35847 37.8716 4.26931 37.7817C4.24717 37.7592 4.22264 37.7393 4.19614 37.7222Z" fill="#333333"/>
<path d="M5.77498 37.6505C5.7443 37.6566 5.71432 37.6658 5.68548 37.6779C5.65694 37.6903 5.6295 37.7051 5.60345 37.7222C5.57738 37.7397 5.55301 37.7597 5.53069 37.7818C5.44156 37.8717 5.39145 37.993 5.39124 38.1196C5.39145 38.1509 5.39461 38.182 5.40067 38.2127C5.40697 38.243 5.4162 38.2726 5.42823 38.301C5.43978 38.3304 5.45458 38.3585 5.47236 38.3846C5.48946 38.4103 5.50905 38.4343 5.53085 38.4562C5.55316 38.4783 5.57752 38.4983 5.60361 38.5159C5.62965 38.5329 5.65709 38.5477 5.68565 38.56C5.71465 38.5717 5.74459 38.5809 5.77514 38.5875C5.80587 38.5932 5.83708 38.5959 5.86833 38.5957C5.99494 38.5958 6.11641 38.5457 6.20605 38.4562C6.22787 38.434 6.24785 38.4101 6.26577 38.3846C6.28305 38.3582 6.29783 38.3303 6.3099 38.3011C6.32154 38.2726 6.33036 38.243 6.33624 38.2128C6.34293 38.1822 6.34612 38.151 6.34575 38.1197C6.34577 38.049 6.33013 37.9793 6.29997 37.9154C6.2698 37.8515 6.22585 37.7952 6.17129 37.7503C6.11672 37.7055 6.0529 37.6733 5.9844 37.656C5.9159 37.6388 5.84444 37.6369 5.77514 37.6506L5.77498 37.6505Z" fill="#333333"/>
<path d="M38.5373 5.70847C38.525 5.67992 38.5102 5.65248 38.4932 5.62644C38.4753 5.60061 38.4553 5.57625 38.4335 5.55359C38.4114 5.53153 38.387 5.51192 38.3607 5.49511C38.3085 5.46016 38.25 5.43583 38.1884 5.42349C38.1115 5.40849 38.032 5.41249 37.9569 5.43517C37.8818 5.45784 37.8134 5.49849 37.7576 5.55359C37.7358 5.57595 37.7162 5.60034 37.6991 5.62644C37.6816 5.65219 37.6668 5.67968 37.655 5.70847C37.6429 5.73733 37.6337 5.76731 37.6274 5.79797C37.6213 5.82863 37.6182 5.85981 37.6179 5.89107C37.6179 5.95379 37.6302 6.01591 37.6541 6.07387C37.6781 6.13183 37.7133 6.18449 37.7576 6.22883C37.802 6.27318 37.8547 6.30834 37.9126 6.33231C37.9706 6.35627 38.0327 6.36857 38.0954 6.36849C38.1267 6.36886 38.1579 6.36567 38.1884 6.35898C38.2191 6.3533 38.2491 6.34451 38.278 6.33273C38.3066 6.32034 38.334 6.30555 38.3601 6.28851C38.3861 6.27094 38.4105 6.25095 38.4328 6.22879C38.522 6.13897 38.5721 6.01761 38.5723 5.89107C38.5727 5.85977 38.5694 5.82853 38.5627 5.79797C38.5572 5.76738 38.5487 5.7374 38.5373 5.70847Z" fill="#333333"/>
<path d="M38.5373 3.74252C38.5249 3.714 38.5101 3.68656 38.4932 3.66048C38.4752 3.63506 38.4553 3.61111 38.4335 3.58887C38.4114 3.56647 38.387 3.54647 38.3607 3.52923C38.3085 3.49438 38.25 3.47006 38.1884 3.45762C38.1269 3.44573 38.0637 3.44573 38.0022 3.45762C37.9408 3.47012 37.8825 3.49444 37.8304 3.52923C37.804 3.5464 37.7796 3.5664 37.7576 3.58887C37.7359 3.61081 37.7162 3.6348 37.6991 3.66048C37.6816 3.68627 37.6669 3.71376 37.655 3.74252C37.6431 3.77147 37.6339 3.80146 37.6274 3.83209C37.6147 3.89393 37.6147 3.9577 37.6274 4.01954C37.6339 4.05014 37.6431 4.0801 37.655 4.10903C37.6669 4.1378 37.6816 4.16529 37.6991 4.19106C37.7159 4.21698 37.7356 4.24099 37.7576 4.26268C37.8473 4.35226 37.9687 4.40284 38.0954 4.40344C38.1267 4.40324 38.1578 4.40005 38.1884 4.39393C38.25 4.38149 38.3085 4.35716 38.3607 4.32231C38.3873 4.30549 38.4118 4.28546 38.4335 4.26268C38.4556 4.2407 38.4755 4.21673 38.4932 4.19106C38.5102 4.16499 38.5249 4.13755 38.5373 4.10903C38.5488 4.08007 38.5576 4.05011 38.5636 4.01954C38.5764 3.95771 38.5764 3.89392 38.5636 3.83209C38.5576 3.80149 38.5488 3.7715 38.5373 3.74252Z" fill="#333333"/>
<path d="M36.4235 3.5289C36.3975 3.5119 36.37 3.49714 36.3415 3.48477C36.3126 3.47272 36.2827 3.46351 36.252 3.45729C36.1905 3.44539 36.1273 3.44539 36.0658 3.45729C36.0351 3.46336 36.0051 3.47257 35.9762 3.48477C35.9477 3.49717 35.9202 3.51193 35.8942 3.5289C35.8676 3.54575 35.8431 3.56578 35.8213 3.58854C35.7322 3.6784 35.6821 3.79977 35.6819 3.92634C35.6818 3.95761 35.6848 3.98881 35.6907 4.01953C35.6971 4.05012 35.7063 4.08008 35.7181 4.10902C35.7296 4.13775 35.744 4.16524 35.7611 4.19105C35.779 4.2165 35.799 4.24045 35.8208 4.26267C35.8425 4.28545 35.867 4.30548 35.8936 4.32231C35.9196 4.33933 35.9471 4.3541 35.9756 4.36644C36.0045 4.37863 36.0345 4.38784 36.0652 4.39392C36.0959 4.39967 36.1271 4.40242 36.1583 4.40212C36.1895 4.40236 36.2207 4.39962 36.2514 4.39392C36.2821 4.38769 36.3121 4.37849 36.3409 4.36644C36.3695 4.35413 36.3969 4.33936 36.423 4.32231C36.4493 4.30516 36.4737 4.28516 36.4957 4.26267C36.54 4.21839 36.5751 4.16581 36.5991 4.10795C36.6231 4.05009 36.6354 3.98807 36.6354 3.92544C36.6354 3.86281 36.6231 3.80079 36.5991 3.74292C36.5751 3.68506 36.54 3.63249 36.4957 3.58821C36.4739 3.56588 36.4497 3.546 36.4235 3.5289Z" fill="#333333"/>
<path d="M38.6807 1.45605H28.7415C28.2475 1.45662 27.7739 1.65312 27.4246 2.00244C27.0752 2.35176 26.8787 2.82538 26.8782 3.31939V8.03529C26.8787 8.52932 27.0752 9.00296 27.4245 9.3523C27.7739 9.70164 28.2475 9.89815 28.7415 9.89871H38.6807C39.1747 9.89815 39.6483 9.70164 39.9977 9.3523C40.347 9.00296 40.5435 8.52932 40.544 8.03529V3.31939C40.5434 2.82538 40.3469 2.35176 39.9976 2.00244C39.6483 1.65312 39.1747 1.45662 38.6807 1.45605ZM39.5892 8.03496C39.5889 8.27582 39.4931 8.50674 39.3228 8.67705C39.1524 8.84737 38.9215 8.94318 38.6807 8.94346H28.7415C28.5008 8.94311 28.2699 8.84732 28.0997 8.67708C27.9294 8.50685 27.8336 8.27605 27.8333 8.03529V3.31939C27.8336 3.07858 27.9293 2.84772 28.0996 2.67741C28.2699 2.50711 28.5007 2.41127 28.7415 2.4109H38.6807C38.9215 2.4112 39.1524 2.50702 39.3227 2.67733C39.493 2.84764 39.5889 3.07854 39.5892 3.31939V8.03496Z" fill="#333333"/>
</svg>
