<svg width="54" height="54" viewBox="0 0 54 54" fill="none" xmlns="http://www.w3.org/2000/svg">
<g filter="url(#filter0_d_57_50)">
<path d="M33.9096 13.8C33.1776 13.8 32.5056 13.38 32.1696 12.732L31.3056 10.992C30.7536 9.9 29.3136 9 28.0896 9H25.3416C24.1056 9 22.6656 9.9 22.1136 10.992L21.2496 12.732C20.9136 13.38 20.2416 13.8 19.5096 13.8C16.9056 13.8 14.8416 15.996 15.0096 18.588L15.6336 28.5C15.7776 30.972 17.1096 33 20.4216 33H32.9976C36.3096 33 37.6296 30.972 37.7856 28.5L38.4096 18.588C38.5776 15.996 36.5136 13.8 33.9096 13.8ZM24.9096 15.3H28.5096C29.0016 15.3 29.4096 15.708 29.4096 16.2C29.4096 16.692 29.0016 17.1 28.5096 17.1H24.9096C24.4176 17.1 24.0096 16.692 24.0096 16.2C24.0096 15.708 24.4176 15.3 24.9096 15.3ZM26.7096 28.344C24.4776 28.344 22.6536 26.532 22.6536 24.288C22.6536 22.044 24.4656 20.232 26.7096 20.232C28.9536 20.232 30.7656 22.044 30.7656 24.288C30.7656 26.532 28.9416 28.344 26.7096 28.344Z" fill="white"/>
</g>
<defs>
<filter id="filter0_d_57_50" x="0" y="0" width="53.4194" height="54" filterUnits="userSpaceOnUse" color-interpolation-filters="sRGB">
<feFlood flood-opacity="0" result="BackgroundImageFix"/>
<feColorMatrix in="SourceAlpha" type="matrix" values="0 0 0 0 0 0 0 0 0 0 0 0 0 0 0 0 0 0 127 0" result="hardAlpha"/>
<feOffset dy="6"/>
<feGaussianBlur stdDeviation="7.5"/>
<feComposite in2="hardAlpha" operator="out"/>
<feColorMatrix type="matrix" values="0 0 0 0 0 0 0 0 0 0 0 0 0 0 0 0 0 0 0.05 0"/>
<feBlend mode="normal" in2="BackgroundImageFix" result="effect1_dropShadow_57_50"/>
<feBlend mode="normal" in="SourceGraphic" in2="effect1_dropShadow_57_50" result="shape"/>
</filter>
</defs>
</svg>
