<svg width="36" height="36" viewBox="0 0 36 36" fill="none" xmlns="http://www.w3.org/2000/svg">
<g clip-path="url(#clip0_21_1128)">
<path d="M35.4727 21.7779V34.7695C35.4727 35.1579 35.1579 35.4727 34.7695 35.4727H1.23047C0.842133 35.4727 0.527344 35.1579 0.527344 34.7695V1.23047C0.527344 0.842133 0.842133 0.527344 1.23047 0.527344H12.9832C13.3715 0.527344 13.6863 0.842133 13.6863 1.23047V21.0748H31.9549L33.6979 21.2857L34.7695 21.0748C35.1579 21.0748 35.4727 21.3896 35.4727 21.7779Z" fill="#FF6153"/>
<path d="M35.4727 31.0753V34.7695C35.4727 35.1577 35.1577 35.4727 34.7695 35.4727H1.23047C0.842344 35.4727 0.527344 35.1577 0.527344 34.7695V31.0753H35.4727Z" fill="#C51607"/>
<path d="M18.5139 21.0748V18.2025" stroke="#333333" stroke-miterlimit="10" stroke-linecap="round" stroke-linejoin="round"/>
<path d="M18.5139 16.0931V12.1816" stroke="#333333" stroke-miterlimit="10" stroke-linecap="round" stroke-linejoin="round"/>
<path d="M18.5139 10.0723V6.16008" stroke="#333333" stroke-miterlimit="10" stroke-linecap="round" stroke-linejoin="round"/>
<path d="M16.4045 4.0507V1.61227C16.4045 1.22414 16.7188 0.909141 17.1077 0.909141H17.8108C18.1989 0.909141 18.5139 1.22414 18.5139 1.61227V4.0507" stroke="#333333" stroke-miterlimit="10" stroke-linecap="round" stroke-linejoin="round"/>
<path d="M16.4045 10.0723V6.16008" stroke="#333333" stroke-miterlimit="10" stroke-linecap="round" stroke-linejoin="round"/>
<path d="M16.4045 16.0931V12.1816" stroke="#333333" stroke-miterlimit="10" stroke-linecap="round" stroke-linejoin="round"/>
<path d="M16.4045 21.0748V18.2025" stroke="#333333" stroke-miterlimit="10" stroke-linecap="round" stroke-linejoin="round"/>
<path d="M30.5564 21.0748V18.2025" stroke="#333333" stroke-miterlimit="10" stroke-linecap="round" stroke-linejoin="round"/>
<path d="M30.5564 16.0931V12.1816" stroke="#333333" stroke-miterlimit="10" stroke-linecap="round" stroke-linejoin="round"/>
<path d="M30.5564 10.0723V6.16008" stroke="#333333" stroke-miterlimit="10" stroke-linecap="round" stroke-linejoin="round"/>
<path d="M28.447 4.0507V1.61227C28.447 1.22414 28.7613 0.909141 29.1501 0.909141H29.8533C30.2414 0.909141 30.5564 1.22414 30.5564 1.61227V4.0507" stroke="#333333" stroke-miterlimit="10" stroke-linecap="round" stroke-linejoin="round"/>
<path d="M28.447 10.0723V6.16008" stroke="#333333" stroke-miterlimit="10" stroke-linecap="round" stroke-linejoin="round"/>
<path d="M28.447 16.0931V12.1816" stroke="#333333" stroke-miterlimit="10" stroke-linecap="round" stroke-linejoin="round"/>
<path d="M28.447 21.0748V18.2025" stroke="#333333" stroke-miterlimit="10" stroke-linecap="round" stroke-linejoin="round"/>
<path d="M22.4254 6.16008H13.6863" stroke="#333333" stroke-miterlimit="10" stroke-linecap="round" stroke-linejoin="round"/>
<path d="M24.5348 4.0507H32.9948C33.3829 4.0507 33.6979 4.3657 33.6979 4.75383V5.45695C33.6979 5.84578 33.3829 6.16008 32.9948 6.16008H24.5348" stroke="#333333" stroke-miterlimit="10" stroke-linecap="round" stroke-linejoin="round"/>
<path d="M22.4254 4.0507H13.6863" stroke="#333333" stroke-miterlimit="10" stroke-linecap="round" stroke-linejoin="round"/>
<path d="M22.4254 18.2025H13.6863" stroke="#333333" stroke-miterlimit="10" stroke-linecap="round" stroke-linejoin="round"/>
<path d="M24.5348 16.0931H32.9948C33.3829 16.0931 33.6979 16.4081 33.6979 16.7962V17.4994C33.6979 17.8875 33.3829 18.2025 32.9948 18.2025H24.5348" stroke="#333333" stroke-miterlimit="10" stroke-linecap="round" stroke-linejoin="round"/>
<path d="M22.4254 16.0931H13.6863" stroke="#333333" stroke-miterlimit="10" stroke-linecap="round" stroke-linejoin="round"/>
<path d="M24.5348 21.0748V12.1816" stroke="#333333" stroke-miterlimit="10" stroke-linecap="round" stroke-linejoin="round"/>
<path d="M22.4254 10.0723V1.61227C22.4254 1.22414 22.7404 0.909141 23.1285 0.909141H23.8317C24.2198 0.909141 24.5348 1.22414 24.5348 1.61227V10.0723" stroke="#333333" stroke-miterlimit="10" stroke-linecap="round" stroke-linejoin="round"/>
<path d="M22.4254 21.0748V12.1816" stroke="#333333" stroke-miterlimit="10" stroke-linecap="round" stroke-linejoin="round"/>
<path d="M13.6863 12.1814H19.2931" stroke="#333333" stroke-miterlimit="10" stroke-linecap="round" stroke-linejoin="round"/>
<path d="M21.6248 12.1814H32.9947C33.3831 12.1814 33.6979 11.8666 33.6979 11.4783V10.7752C33.6979 10.3868 33.3831 10.0721 32.9947 10.0721H13.6863" stroke="#333333" stroke-miterlimit="10" stroke-linecap="round" stroke-linejoin="round"/>
<path d="M35.4727 31.075H0.527344" stroke="#333333" stroke-miterlimit="10" stroke-linecap="round" stroke-linejoin="round"/>
<path d="M0.527344 9.063V34.7695C0.527344 35.1579 0.842133 35.4727 1.23047 35.4727H34.7695C35.1579 35.4727 35.4727 35.1579 35.4727 34.7695V21.7779C35.4727 21.3896 35.1579 21.0748 34.7695 21.0748H34.2702" stroke="#333333" stroke-miterlimit="10" stroke-linecap="round" stroke-linejoin="round"/>
<path d="M31.9385 21.0748H13.6863V1.23047C13.6863 0.842133 13.3715 0.527344 12.9832 0.527344H1.23047C0.842133 0.527344 0.527344 0.842133 0.527344 1.23047V6.73123" stroke="#333333" stroke-miterlimit="10" stroke-linecap="round" stroke-linejoin="round"/>
<path d="M3.93691 28.2737H3.43945" stroke="#333333" stroke-miterlimit="10" stroke-linecap="round" stroke-linejoin="round"/>
<path d="M5.65859 26.4855H5.16113" stroke="#333333" stroke-miterlimit="10" stroke-linecap="round" stroke-linejoin="round"/>
<path d="M30.4632 24.8143H29.9657" stroke="#333333" stroke-miterlimit="10" stroke-linecap="round" stroke-linejoin="round"/>
<path d="M7.5782 7.69922H7.08081" stroke="#333333" stroke-miterlimit="10" stroke-linecap="round" stroke-linejoin="round"/>
<path d="M7.5782 10.0721H7.08081" stroke="#333333" stroke-miterlimit="10" stroke-linecap="round" stroke-linejoin="round"/>
<path d="M21.3148 27.1223H20.8174" stroke="#333333" stroke-miterlimit="10" stroke-linecap="round" stroke-linejoin="round"/>
<path d="M5.40987 12.1814H4.91248" stroke="#333333" stroke-miterlimit="10" stroke-linecap="round" stroke-linejoin="round"/>
</g>
<defs>
<clipPath id="clip0_21_1128">
<rect width="36" height="36" fill="white"/>
</clipPath>
</defs>
</svg>
