<svg width="53" height="47" viewBox="0 0 53 47" fill="none" xmlns="http://www.w3.org/2000/svg">
<g clip-path="url(#clip0_18_779)" filter="url(#filter0_d_18_779)">
<path d="M44.9912 32.176L44.9911 32.176C44.4505 32.3212 44.396 33.067 44.9104 33.2887C44.9105 33.2887 44.9106 33.2888 44.9107 33.2888L48.5 34.8365V37.0613C48.5 37.7366 47.9527 38.2838 47.2775 38.2838H14.4648C13.7897 38.2838 13.2427 37.7367 13.2427 37.0613V20.7673C13.2427 20.0919 13.7897 19.5448 14.4648 19.5448H47.2775C47.9527 19.5448 48.5 20.092 48.5 20.7673V31.2347L44.9912 32.176Z" fill="#C51607" stroke="#333333"/>
<path d="M5.72245 6.74023H38.5352C39.21 6.74023 39.7573 7.28741 39.7573 7.96268V24.2571C39.7573 24.932 39.21 25.4792 38.5352 25.4792H5.72245C5.04718 25.4792 4.5 24.9319 4.5 24.2571V7.96268C4.5 7.28748 5.04725 6.74023 5.72245 6.74023Z" fill="#FF6153" stroke="#333333"/>
<path d="M40.2573 16.6913V14.697C39.5528 15.5721 38.2725 16.8791 37.545 17.5095C34.8167 19.876 31.2313 21.3756 27.4496 21.733C24.6457 21.9967 21.9067 21.6578 18.6166 21.1871L18.3756 21.1525C15.4807 20.7391 12.4869 20.3117 9.49625 20.5118C7.64368 20.6364 5.53431 21.2829 4 21.9109V23.3442C5.54083 22.6576 7.79063 21.9479 9.58449 21.8274C12.4375 21.6359 15.3616 22.0537 18.1892 22.4578L18.4299 22.4921C21.0858 22.8722 24.391 23.3453 27.5732 23.0455C31.6262 22.6627 35.4745 21.0505 38.4085 18.5058C38.9015 18.0787 39.6098 17.3831 40.2573 16.6913Z" fill="#333333"/>
<path d="M4 8.40866C6.68272 8.7125 9.32322 10.1119 11.8806 11.468C12.8241 11.9682 13.715 12.4406 14.6128 12.8636C16.5072 13.7556 18.4196 14.2877 20.2965 14.4453C20.5248 14.4649 20.749 14.4745 20.9694 14.4741C22.4182 14.4741 23.681 14.0594 24.5746 13.2794C25.2503 12.6889 25.618 11.9047 25.6664 10.9492C25.7145 10.0058 25.4333 8.89446 24.8538 7.73609C24.6004 7.23003 24.2935 6.72329 23.9525 6.24023H22.2878C23.3826 7.53319 24.4243 9.42146 24.3498 10.8823C24.3196 11.4756 24.1094 11.9349 23.7074 12.2861C22.6853 13.1784 21.2015 13.199 20.4074 13.1314C18.687 12.9872 16.9264 12.4956 15.1745 11.6706C14.3052 11.2613 13.4276 10.7958 12.4983 10.3031C9.87391 8.91129 7.16544 7.47517 4.29045 7.11468C4.27294 7.10678 4.25509 7.09991 4.23689 7.09373C4.0872 7.34917 4 7.64545 4 7.96268V8.40866Z" fill="#333333"/>
<path d="M30.0163 9.59621C30.5529 11.9603 29.971 14.3196 28.5342 15.6071C27.439 16.5883 25.9737 16.9117 24.9372 17.0099C23.635 17.1335 22.2727 16.9934 20.9557 16.8582L20.7315 16.8352C16.1203 16.3638 11.1706 16.0242 6.21649 16.7246C5.50753 16.8245 4.59189 17.0055 4 17.1284V18.4756C4.76012 18.3139 5.73206 18.124 6.40051 18.0299C11.2156 17.3498 16.0695 17.6839 20.5976 18.1463L20.8208 18.1693C22.2016 18.3115 23.6295 18.4581 25.0615 18.3224C26.8306 18.1546 28.3354 17.5551 29.4138 16.5887C30.3552 15.7455 31.0171 14.5727 31.3281 13.1966C31.608 11.9586 31.599 10.6128 31.3021 9.30439C31.1177 8.49003 30.6178 7.26917 30.1447 6.24023H28.688C29.2095 7.31861 29.8271 8.76125 30.0163 9.59621Z" fill="#333333"/>
<path d="M12.7427 30.7768H21.3065C21.6708 30.7768 21.9657 30.4819 21.9657 30.1176C21.9657 29.7534 21.6708 29.4585 21.3065 29.4585H12.7427V30.7768Z" fill="#333333"/>
<path d="M49 22.4784H46.0385C45.6742 22.4784 45.3793 22.7733 45.3793 23.1375C45.3793 23.5018 45.6742 23.7967 46.0385 23.7967H49V22.4784Z" fill="#333333"/>
<path d="M45.1084 32.8295C45.0294 32.7955 45.0377 32.6812 45.1208 32.6589L47.3263 32.067H30.603C30.2388 32.067 29.9438 32.3623 29.9438 32.7262C29.9438 33.0905 30.2388 33.3854 30.603 33.3854H46.3979L45.1084 32.8295Z" fill="#333333"/>
</g>
<defs>
<filter id="filter0_d_18_779" x="0" y="0" width="53" height="53" filterUnits="userSpaceOnUse" color-interpolation-filters="sRGB">
<feFlood flood-opacity="0" result="BackgroundImageFix"/>
<feColorMatrix in="SourceAlpha" type="matrix" values="0 0 0 0 0 0 0 0 0 0 0 0 0 0 0 0 0 0 127 0" result="hardAlpha"/>
<feOffset dy="4"/>
<feGaussianBlur stdDeviation="2"/>
<feComposite in2="hardAlpha" operator="out"/>
<feColorMatrix type="matrix" values="0 0 0 0 0 0 0 0 0 0 0 0 0 0 0 0 0 0 0.25 0"/>
<feBlend mode="normal" in2="BackgroundImageFix" result="effect1_dropShadow_18_779"/>
<feBlend mode="normal" in="SourceGraphic" in2="effect1_dropShadow_18_779" result="shape"/>
</filter>
<clipPath id="clip0_18_779">
<rect width="45" height="45" fill="white" transform="translate(4)"/>
</clipPath>
</defs>
</svg>
